<svg width="206" height="41" viewBox="0 0 206 41" fill="none" xmlns="http://www.w3.org/2000/svg">
<path d="M66.6319 30.8378L68.5974 32.5964C66.1998 34.779 63.6558 35.8702 60.9794 35.8702C58.1148 35.8702 55.6754 34.8624 53.6542 32.8466C51.6329 30.8309 50.6223 28.3981 50.6223 25.5413C50.6223 22.6845 51.6329 20.2586 53.6542 18.2359C55.6754 16.2132 58.1148 15.2053 60.9794 15.2053C63.6558 15.2053 66.1998 16.2966 68.5974 18.4792L66.6319 20.2586C64.8268 18.6599 62.9379 17.8536 60.9794 17.8536C58.8606 17.8536 57.0415 18.6043 55.536 20.1057C54.0305 21.6071 53.2708 23.4143 53.2708 25.5413C53.2708 27.6682 54.0236 29.4893 55.536 30.9907C57.0415 32.4921 58.8606 33.2428 60.9794 33.2428C62.9379 33.2428 64.8268 32.4435 66.6319 30.8378Z" fill="white"/>
<path d="M71.1067 15.4277H73.7413V24.0468C74.4731 22.6427 75.5395 21.9337 76.9334 21.9337C78.3274 21.9337 79.4426 22.4342 80.272 23.4351C81.1014 24.4361 81.5335 25.6872 81.5614 27.1955V35.6548H78.9407V27.2998C78.9407 26.5491 78.7247 25.9096 78.2995 25.3744C77.8744 24.8392 77.1983 24.5681 76.2783 24.5681C75.191 24.5681 74.3407 25.152 73.7413 26.3128V35.6548H71.1067V15.4277Z" fill="white"/>
<path d="M96.0236 23.5535V22.643H98.6582V35.6619H96.0236V34.0285C94.7551 35.3352 93.2844 35.9886 91.6117 35.9886C89.6183 35.9886 87.9177 35.2866 86.5098 33.8825C85.1019 32.4784 84.3979 30.7824 84.3979 28.7945C84.3979 26.8065 85.1019 25.1105 86.5098 23.7065C87.9177 22.3024 89.6183 21.6003 91.6117 21.6003C93.2844 21.6003 94.7551 22.2468 96.0236 23.5466V23.5535ZM96.0236 29.7607V27.8422C95.8702 27.022 95.466 26.2852 94.8039 25.6179C93.9187 24.7421 92.8523 24.3042 91.6117 24.3042C90.3711 24.3042 89.2907 24.7421 88.4126 25.6179C87.5274 26.4937 87.0883 27.5572 87.0883 28.8014C87.0883 30.0456 87.5274 31.1022 88.4126 31.978C89.2977 32.8607 90.3641 33.2986 91.6117 33.2986C92.8593 33.2986 93.9187 32.8607 94.8039 31.9849C95.466 31.3176 95.8702 30.5809 96.0236 29.7607Z" fill="white"/>
<path d="M104.464 15.4141V35.655H101.829V15.4141H104.464Z" fill="white"/>
<path d="M110.256 15.4141V35.655H107.621V15.4141H110.256Z" fill="white"/>
<path d="M117.463 32.7078C117.902 33.0971 118.703 33.2917 119.86 33.2917C121.108 33.2917 122.181 32.8538 123.066 31.978C123.178 31.8598 123.401 31.6026 123.736 31.1925L126.356 32.1309C125.715 33.0137 125.248 33.6045 124.962 33.8895C123.554 35.2935 121.847 36.0025 119.853 36.0025C117.86 36.0025 116.166 35.3005 114.758 33.8895C113.351 32.4784 112.64 30.7824 112.64 28.7945C112.64 26.8065 113.344 25.1105 114.758 23.6995C116.166 22.2885 117.867 21.5864 119.853 21.5864C121.561 21.5864 123.059 22.1008 124.342 23.1295C124.551 23.3033 124.76 23.4979 124.962 23.6995C125.046 23.7829 125.29 24.047 125.687 24.4988L124.37 25.8265L117.463 32.7148V32.7078ZM121.847 24.617C121.554 24.3876 120.885 24.2764 119.853 24.2764C118.613 24.2764 117.546 24.7143 116.668 25.5971C115.783 26.4798 115.344 27.5433 115.344 28.7875C115.344 29.8093 115.455 30.4696 115.685 30.7755L121.847 24.617Z" fill="white"/>
<path d="M131.395 26.1323V35.655H128.761V22.6499H131.395V24.1652C131.946 22.6847 133.047 21.9409 134.706 21.9409C136.121 21.9409 137.236 22.4414 138.072 23.4423C138.909 24.4432 139.334 25.6944 139.362 27.2027V35.6619H136.741V27.307C136.741 26.5563 136.469 25.9168 135.919 25.3816C135.368 24.8464 134.713 24.5753 133.953 24.5753C133.194 24.5753 132.552 24.8394 132.002 25.3607C131.695 25.6735 131.5 25.9307 131.402 26.1462L131.395 26.1323Z" fill="white"/>
<path d="M153.866 23.5465V22.6498H156.501V32.3184C156.501 34.8486 155.811 36.7948 154.438 38.1711C153.023 39.4083 151.322 40.027 149.329 40.027C147.335 40.027 145.635 39.4083 144.22 38.1711C143.934 37.8861 143.474 37.3022 142.84 36.4264L145.454 35.488C145.795 35.8912 146.018 36.1553 146.137 36.2735C147.022 37.1493 148.088 37.5872 149.329 37.5872C151.42 37.5872 152.862 36.2248 153.664 33.4931C152.842 35.0779 151.434 35.8703 149.44 35.8703C147.447 35.8703 145.746 35.1892 144.338 33.8198C142.931 32.4575 142.227 30.7754 142.227 28.7874C142.227 26.7995 142.931 25.1034 144.338 23.6994C145.746 22.2953 147.447 21.5933 149.44 21.5933C151.12 21.5933 152.598 22.2397 153.866 23.5395V23.5465ZM153.852 27.7795C153.692 26.9802 153.288 26.2573 152.632 25.6039C151.754 24.7211 150.688 24.2763 149.44 24.2763C148.193 24.2763 147.119 24.7211 146.241 25.6039C145.356 26.4867 144.917 27.5502 144.917 28.7874C144.917 30.0247 145.356 31.102 146.241 31.9779C147.126 32.8606 148.193 33.2985 149.44 33.2985C150.688 33.2985 151.754 32.8606 152.632 31.9848C153.281 31.3384 153.692 30.6224 153.852 29.837V27.7795Z" fill="white"/>
<path d="M163.763 32.7078C164.202 33.0971 165.004 33.2917 166.161 33.2917C167.408 33.2917 168.482 32.8538 169.367 31.978C169.478 31.8598 169.701 31.6026 170.036 31.1925L172.657 32.1309C172.015 33.0137 171.548 33.6045 171.263 33.8895C169.848 35.2935 168.147 36.0025 166.154 36.0025C164.16 36.0025 162.467 35.3005 161.059 33.8895C159.651 32.4784 158.94 30.7824 158.94 28.7945C158.94 26.8065 159.644 25.1105 161.059 23.6995C162.474 22.2885 164.167 21.5864 166.154 21.5864C167.861 21.5864 169.36 22.1008 170.642 23.1295C170.851 23.3033 171.06 23.4979 171.263 23.6995C171.346 23.7829 171.59 24.047 171.987 24.4988L170.67 25.8265L163.763 32.7148V32.7078ZM168.147 24.617C167.854 24.3876 167.185 24.2764 166.154 24.2764C164.913 24.2764 163.847 24.7143 162.968 25.5971C162.083 26.4798 161.644 27.5433 161.644 28.7875C161.644 29.8093 161.756 30.4696 161.986 30.7755L168.147 24.617Z" fill="white"/>
<path d="M191.377 31.3174C191.377 32.7145 190.994 33.8058 190.22 34.5774C189.398 35.4045 188.408 35.8146 187.244 35.8146C186.08 35.8146 185.098 35.4045 184.282 34.5843C183.467 33.7641 183.062 32.6728 183.062 31.3035L185.139 30.4972C185.376 31.7762 185.676 32.5686 186.039 32.8605C186.31 33.0899 186.673 33.2011 187.126 33.2011H187.175C187.656 33.1941 188.053 33.0343 188.367 32.7354C188.617 32.4713 188.75 31.9638 188.75 31.2062V15.4277H191.37V31.3174H191.377Z" fill="white"/>
<path d="M199.769 25.2772C198.333 24.7976 197.169 24.1095 196.277 23.2198C195.385 22.3301 194.939 21.2318 194.939 19.9112C194.939 18.5905 195.399 17.5131 196.326 16.5887C197.253 15.6642 198.375 15.1985 199.693 15.1985C201.01 15.1985 202.111 15.6572 203.038 16.5748C203.561 17.0822 204 17.8815 204.355 18.9867L201.972 19.9251C201.686 19.1466 201.421 18.6461 201.184 18.4098C200.773 18.0066 200.271 17.8051 199.686 17.8051C199.1 17.8051 198.591 18.0066 198.173 18.4167C197.762 18.8268 197.553 19.3273 197.553 19.9181C197.553 20.5089 197.762 21.0094 198.173 21.4265C198.64 21.8783 199.281 22.2953 200.097 22.6776C201.686 23.192 203.031 23.9983 204.139 25.1035C205.38 26.3268 206 27.8073 206 29.552C206 31.2967 205.38 32.7842 204.146 34.0214C202.906 35.2587 201.421 35.8773 199.679 35.8773C197.936 35.8773 196.438 35.2587 195.204 34.0214C194.214 33.0344 193.587 31.672 193.329 29.9343L195.88 29.0098C196.04 30.5043 196.431 31.5608 197.058 32.1794C197.783 32.9023 198.661 33.2638 199.679 33.2638C200.696 33.2638 201.574 32.9023 202.299 32.1794C203.024 31.4566 203.387 30.5807 203.387 29.552C203.387 28.5233 203.024 27.6614 202.299 26.9385C201.574 26.2156 200.759 25.6943 199.748 25.2842L199.769 25.2772Z" fill="white"/>
<path d="M25.265 4.89974C25.265 5.7941 24.9844 6.71589 24.3627 7.57183L5.02948 34.4134C4.8039 34.7317 4.52881 35.028 4.22071 35.2968C0.633553 34.3531 -1.22605 30.6714 0.897642 27.725L20.2364 0.88338C20.462 0.565144 20.7316 0.268855 21.0397 0C23.587 0.669394 25.2705 2.72147 25.2705 4.89974H25.265Z" fill="white"/>
<path d="M31.9772 18.5235C31.9772 19.4179 31.6966 20.3397 31.0749 21.1956L21.6064 34.4134C21.3808 34.7316 21.1057 35.0279 20.7976 35.2968C17.2105 34.353 15.3509 30.6714 17.4745 27.7249L26.9541 14.5072C27.1797 14.1889 27.4493 13.8926 27.7574 13.6238C30.3047 14.2932 31.9882 16.3452 31.9882 18.5235H31.9772Z" fill="white"/>
<path d="M38.3923 30.4575C38.1833 31.3299 37.6881 32.1749 36.8793 32.8827L35.1628 34.5836C34.8657 34.8525 34.5246 35.0829 34.1615 35.2859C30.8769 33.6618 29.9196 29.7003 32.6925 27.2477L34.4145 25.5468C34.7116 25.2779 35.0417 25.0475 35.4049 24.8445C37.7376 25.9967 38.904 28.3341 38.3868 30.4575H38.3923Z" fill="white"/>
</svg>
